<?xml version="1.0" encoding="UTF-8"?>
<svg id="Layer_1" xmlns="http://www.w3.org/2000/svg" version="1.1" viewBox="0 0 512 512">
  <!-- Generator: Adobe Illustrator 29.3.1, SVG Export Plug-In . SVG Version: 2.1.0 Build 151)  -->
  <defs>
    <style>
      .st0 {
        fill: #059669;
      }

      .st1 {
        fill: #fefefe;
      }

      .st2 {
        fill: #8e9285;
      }
    </style>
  </defs>
  <path class="st0" d="M0,0h512v512H0V0ZM0,0v215.6c2.4-1.1,9.9-8.4,12.6-10.6l58.7-49.2c46.7-38.5,93-77.4,138.9-116.8l30.8-26.4,9.2-7.7c1.9-1.5,4-3.1,5.6-4.9H0ZM256.9,0c4.9,5.2,13,11.1,18.7,15.9l44.5,37.7c51.8,44.4,103.9,88.5,156.4,132.1,6.8,5.6,13.6,11.1,20.3,16.8,3.5,3,11.7,10.6,15.2,12.4V0h-255.1ZM0,216.5v295.5h68.4c-1.2-.5-2.5-.7-3.7-1-3.7-1-6.9-2.5-9.7-5.2-2.6-2.6-4.5-6.1-4.9-9.8-.4-3.7-.2-7.6-.2-11.3v-17.8c0,0,0-54.5,0-54.5v-171.2c7.6-.5,15.4-.1,23-.1,15.9,0,31.8,0,47.7-.2,0-5.1.1-10.2.1-15.3,0-3-.4-6.1,0-9-7.5.5-15.1.2-22.6.2h-40.6s-36.1,0-36.1,0c-7.1,0-14.3.2-21.4-.2ZM394.3,217c.6,7.4,0,16.2,0,23.8,17.2.6,34.5,0,51.8,0,5.9,0,11.9-.3,17.7,0,.2,14.9.3,29.7.2,44.6l-.2,116.1v65.2s0,17.3,0,17.3c0,3.7.2,7.5-.2,11.3-.4,4.1-1.8,7.6-4.6,10.6-2.9,3-6.7,5-10.9,5.5v.4c-.1,0,63.9,0,63.9,0V216.7l-117.7.3Z"/>
  <path class="st2" d="M68.7,512c.6-.3,1.2-.4,1.8-.4,8.5-.5,17.2,0,25.7,0h48.7s206.6,0,206.6,0h64.2s20.1,0,20.1,0c4.1,0,8.3-.2,12.4.1v.4H68.7Z"/>
  <path class="st1" d="M298.6,108.3c6.4,3.1,12.7,6.5,18.5,10.7,15.5,11.3,27.5,28.2,34.1,46.2,8.7,24.4,7.5,51.2-3.3,74.7-11,23.6-31.1,41.9-55.6,50.6-26.4,9.4-55.4,8-80.6-4.1-8.1-3.6-15.8-9-22.4-14.8-19.4-17-31.3-40.9-33.2-66.7-1.3-20.3,3.9-40.4,14.9-57.5,3.3-5,7.1-9.7,11.1-14.2,12.6,5.8,26,9.7,39.7,11.5,19.8,2.8,45.7.9,62.1-11.5,8.1-6.2,13.5-14.8,14.9-25Z"/>
  <path class="st0" d="M247.1,202.5c4.1-.4,6,2.8,9.5,2.9,3.4,0,6.2-3.4,9.6-2.9,1.3.2,2.5,1,3.3,2,1,1.4,1.3,3.3,1,4.9-.4,2.6-1.9,4.1-3.9,5.6-4.6,2.6-10.1,3.1-15.1,1.8-3.2-.9-6.7-2.6-8.4-5.6-.7-1.3-1.1-2.8-.5-4.3.8-2.2,2.7-3.5,4.6-4.4Z"/>
  <path class="st0" d="M210,170.5c4.1-.3,7.8.2,11.3,2.6,3.2,2.2,5.6,5.6,6.3,9.5.7,4.2-.1,8.7-2.6,12.2-2.4,3.4-5.6,5.1-9.6,5.8-3.6.4-6.9,0-10.1-1.8-3.6-2.1-6.1-5.5-7.1-9.5-1-4-.4-8.2,1.8-11.8,2.3-3.8,5.9-6,10.2-7.1Z"/>
  <path class="st0" d="M298,170.5c3.4-.3,6.7.2,9.7,1.8,3.6,2,6.3,5.2,7.4,9.1,1.1,3.9.8,8.3-1.3,11.8-2.4,4.2-6.2,6.3-10.8,7.6-3.8.4-7.3-.2-10.6-2.2-3.5-2.1-5.9-5.5-6.8-9.4-.9-4.1-.3-8.6,2-12.1,2.4-3.8,6.1-5.7,10.4-6.7Z"/>
  <path class="st0" d="M209.7,232.8c8.2-.2,16.5.3,24.7.1.6,3.6,1.8,6.8,4,9.8,3.5,4.7,9.1,7.9,14.9,8.7,6.2.9,12.5-.7,17.5-4.5,4.5-3.4,7.3-8.3,8.1-14,8.1,0,16.2-.1,24.3,0-.6,6.9-1.4,12.6-4.7,18.8-2.1,3.6-4.7,6.9-7.6,9.9-8.9,8.9-21.8,13.2-34.2,13.1-12.9-.1-25.9-4.7-35-14-7.4-7.6-12-17.3-11.9-28Z"/>
  <path class="st1" d="M201.9,295.3c.5,0,1-.1,1.5-.1,1.3,0,2.3.2,3.2,1.1,2,2.1,3,5.4,4.4,7.9,2.5,4.7,6.4,8.9,10.4,12.4,11,9.6,24.5,14.5,39.1,13.4,16-1.2,30.6-9.8,39.4-23.2,2-3.1,3.7-8.3,5.8-10.6.7-.8,1.9-.9,2.9-.9,2.3,0,4.7.6,6.8,1.2,9.8,2.5,19.9,7.3,27.1,14.5,9.3,9.2,15.5,21.2,16.9,34.2.6,5.3.4,10.6.4,15.9v22.1c5.2,2.3,9.9,5.4,13.9,9.3,8.7,8.5,13.2,19.9,13.2,31.9,0,12-4.7,22.8-13.2,31.2-14.2,14.1-29.5,12.6-47.8,12.5-4.5,0-9.4-.6-13.8.2-6.1,1-12.8,4-18.6,6.1-12.1,4.3-24.1,8.5-36,13.2-10.1-3.9-20.7-7-30.9-10.6-4.7-1.7-9.5-3.2-14.3-4.9-3.2-1.1-6.6-2.7-9.9-3.4-3.4-.7-7.3-.3-10.7-.3h-14.4c-10.9,0-19-.3-28.9-5.7-10.4-5.7-18.1-15.2-21.5-26.5-3.4-11.5-2.1-23.9,3.6-34.4,4.4-7.9,13.3-17.1,22.2-19.6v-19.4c-.2-15.7.3-29.9,9.8-43.5,9-12.8,24.3-21.3,39.6-24Z"/>
  <path class="st0" d="M334.9,345.5h.3c.6,1.2.4,53,.4,59,4.7-.9,10-.4,14.3,1.7,4.9,2.3,9.1,6.3,11,11.4,1.6,4.5,1.2,9.6-.9,13.9-3.1,6.4-9.5,10.3-16.4,11.1-3.4.4-7,.1-10.5.1h-15.1c-3.1,0-6.3-.3-9.3.1-4.4.5-14.6,4.8-19.4,6.4-6.8,2.4-13.6,4.9-20.3,7.4.3-10.7-.1-21.5-.1-32.2,0-11.9.2-23.9.2-35.8,0-8.5-.2-17,.2-25.4,21.8-6.1,43.7-12,65.6-17.6Z"/>
  <path class="st0" d="M177.2,345.6c4.9,1.4,9.9,2.5,14.8,3.8l29.6,7.8c7.5,1.9,15.3,3.6,22.6,6.3.5,31,.2,62.1,0,93.1-6.9-2.5-13.9-4.9-20.9-7.2-2-.8-4.1-1.4-6.1-2.1-3.9-1.4-8-3.3-12-3.9-3.2-.5-6.7-.4-10-.4h-15.2c-4.3,0-8.9.2-13.2-.4-5.1-.8-9.7-3.3-12.8-7.5-3.1-4.2-4.3-9.5-3.4-14.7.8-5,3.7-9.5,7.8-12.5,5.7-4,12-4.5,18.6-3.3v-32.4c0-8.8,0-17.7,0-26.5Z"/>
</svg>