<?xml version="1.0" encoding="UTF-8"?>
<svg id="Layer_1" xmlns="http://www.w3.org/2000/svg" version="1.1" viewBox="0 0 512 512">
  <!-- Generator: Adobe Illustrator 29.3.1, SVG Export Plug-In . SVG Version: 2.1.0 Build 151)  -->
  <defs>
    <style>
      .st0 {
        fill: #059669;
      }
    </style>
  </defs>
  <path class="st0" d="M0,0h512v512H0V0ZM0,0v275.2c5.6-3.1,11.1-7.2,16.3-11l21.5-15.1c26.4-18.2,52.7-36.5,78.9-55l92-63.8,21.3-15c4-2.8,8.7-5.5,12.4-8.8l.2-70.2V15.4c-.1-4.1-.4-8.4,0-12.5,7.5-.2,15.1,0,22.6,0,16.5-.2,33-.2,49.5,0h19.1c3.9,0,8-.2,11.9.3-4.3,5.4-8,11.2-12,16.8-2.8,4-6,7.9-8.5,12.1,2.6,4,5.6,7.8,8.3,11.8,4,5.7,7.7,11.5,12.1,16.9-6.8.3-13.7.1-20.5.1h-29.8c0,0-16.5,0-16.5,0-3,0-6.1.2-9-.1.2,10.4,0,20.8,0,31.2,0,5.1-.2,10.3,0,15.4,54.8,38.6,109.8,76.9,165.1,114.7l47.9,33.2c6.3,4.4,12.6,8.8,19,13.2,3.4,2.3,6.8,5.1,10.4,7.1V0H0ZM346.3,300.6c.5,4.9,0,10.3-.1,15.3v26c-.1,5.2-.3,10.6,0,15.8h-25.8c-5.2,0-10.6.4-15.7-.3-3.1-6.8-6.2-12-11.4-17.5-9.3-9.9-22.1-15.6-35.7-16-17.4-.5-34.4,8.5-44.3,22.7-1.7,2.4-4.5,9.1-6.1,10.5-.6.5-1.3.5-2,.6-5.1.4-10.4,0-15.5,0-8,0-16,.3-24-.2-.3-8.5,0-17-.1-25.5,0-10.4-.4-20.8-.2-31.2h-58s-16.1,0-16.1,0c-3.4,0-7.1.3-10.5-.1.3,6.6,0,13.4,0,20v37.7c.1,19.2.2,38.3.1,57.5,0,8.4.2,16.8,0,25.2,10.2-.3,20.4,0,30.5,0h54.1c-.3-10.1.1-20.3.2-30.4,0-9.1-.4-18.2,0-27.3,12.4-.3,24.9-.1,37.3,0,0,10.7,0,21.5,0,32.2v54.6s0,24.6,0,24.6c0,4.6.2,9.4-.1,14-.5.4-.9.5-1.5.6-1.5,0-3.2,0-4.7,0h-11.4s-36.9,0-36.9,0h-63.6c-11.1,0-22.2.1-33.2,0-9.7-.1-18.8-2.4-25.8-9.6-3.7-3.9-6.2-8.9-7-14.3-1-7.2-.3-17.1-.3-24.6l.2-46.5v-81.2c0-6.8-.3-13.6,0-20.4-6.1.2-12.5.4-18.6-.2v199.6h512v-199.3c-6.1-.1-12.3.5-18.3-.1.2,6.3,0,12.7,0,19v37.4s0,110.1,0,110.1c0,8.4-2.4,15.3-8.5,21.2-4.1,4-9.5,7.3-15.1,8.4-6.1,1.1-12.8.6-19,.6h-30.4s-111.7,0-111.7,0c.2-5,0-10,0-15v-28.6s.1-82.1.1-82.1c12.3,0,24.5,0,36.8,0,.3,19.1,0,38.2,0,57.3,3.8.3,7.6.2,11.4.1h16.9s56.9,0,56.9,0c-.3-5.4,0-10.9,0-16.2v-32.3s0-91.8,0-91.8h-56.8c0,.1-17.5.1-17.5.1-3.6,0-7.2.1-10.8-.1ZM254.6,202.6c-11.3.5-21.1,4.2-28.9,12.7-7.3,7.9-11.4,18.3-10.9,29.2.4,11,5.3,21.4,13.5,28.9,8.2,7.4,18.4,11.1,29.5,10.8,12.2-.9,22.2-6,30.3-15.3,6.9-7.9,9.7-19.3,8.9-29.7-.9-10.5-5.9-20.2-13.9-26.9-8.2-6.9-17.8-10.2-28.5-9.7Z"/>
  <path class="st0" d="M376.9,327.9c8.6-.3,19.8-.4,28.3.2-.2,6.7,0,13.4,0,20.1,0,2.9.3,6.2-.3,9-.7.5-1,.4-1.8.4-9.7,0-19.5.4-29.1-.1-.1-3.8-.7-27.6.2-29.1.8-.5,1.8-.4,2.8-.4Z"/>
  <path class="st0" d="M374.4,383.6c10.1-.2,20.5-.4,30.6.1.1,3.3.6,28.5-.2,29.8h-.6c-10.3,0-20.5.5-30.8,0,0-5.6.2-11.2.2-16.8,0-3.8-.3-7.8,0-11.6,0-.9,0-1,.8-1.6Z"/>
  <path class="st0" d="M107.3,327.3c10.7,0,21.3,0,32,0,.1,6.6.2,13.2.2,19.8,0,3.4.3,7.3-.3,10.7-4.2-.3-8.6,0-12.9,0h-19.2c0-4.9-.6-27.8.3-30.4Z"/>
  <path class="st0" d="M111.8,383.6c4.2,0,24.4-.7,27.2.4,1,3.2.4,24.9.4,30.1-1.7-.1-3.5,0-5.2,0-9.2,0-18.5,0-27.7,0,.3-3.7.2-7.5.2-11.2v-18.9c1.7-.2,3.4-.2,5.1-.3Z"/>
  <path class="st0" d="M293.6,92.3c3.6-.2,7.3,0,11,0h21.7s60.3,0,60.3,0c10.7,0,20-.3,28.2,7.9,3.5,3.5,6.3,8.2,7.4,13,1.6,6.9.8,18.8.8,26.3v41.7c-.3,0-.4,0-.7,0-1.4-.5-3.3-2.1-4.7-3-6.6-4.4-12.9-8.9-19.5-13.4l-102.9-70.9c-.7-.5-1.3-.7-1.6-1.5Z"/>
</svg>